# xmcd
# 
# Track frame offsets:
#     150
#     16435
#     38165
#     71185
#     97905
#     117237
# 
# Disc length: 2030
# 
# Revision: 1
# Processed by: cddbd v1.5.2PL0 Copyright (c) Steve Scherf et al.
# Submitted via: BonkEnc v1.0.6
# 
DISCID=4907ec06
DTITLE=Eric Gale - Forecast
DYEAR=1973
DGENRE=Fusion
TTITLE0=Killing Me Softly With His Song
TTITLE1=Cleopatra
TTITLE2=Dindi
TTITLE3=White Moth
TTITLE4=Tonsue Corte
TTITLE5=Forecast
EXTD=
EXTT0=
EXTT1=
EXTT2=
EXTT3=
EXTT4=
EXTT5=
PLAYORDER=
